{"title":"Lesbians play with cucumber in kitchen","uid":5104872,"size":884750312,"categoryP":"porn","categoryS":"movies","magnet":"?xt=urn:btih:44d478cba34b0682885b83c53dea8627f15c8d40&amp;dn=Lesbians+play+with+cucumber+in+kitchen&amp;tr=udp%3A%2F%2Ftracker.openbittorrent.com%3A80&amp;tr=udp%3A%2F%2Fopen.demonii.com%3A1337&amp;tr=udp%3A%2F%2Ftracker.coppersurfer.tk%3A6969&amp;tr=udp%3A%2F%2Fexodus.desync.com%3A6969","seeders":0,"leechers":1,"uploader":"harry711","files":1,"time":1254285543,"description":"Lesbians play with cucumber in kitchen - weDoPorn.com..\n\n\nSorry I don't have a better title, the video had no title I could find :|\n\n\nFormat                           : MPEG-PS\nFile size                        : 844 MiB\nDuration                         : 18mn 43s\nOverall bit rate                 : 6 298 Kbps\n\nVideo\nID                               : 224 (0xE0)\nFormat                           : MPEG Video\nFormat version                   : Version 2\nFormat profile                   : Main@Main\nFormat settings, Matrix          : Default\nDuration                         : 18mn 43s\nBit rate mode                    : Variable\nBit rate                         : 5 824 Kbps\nNominal bit rate                 : 8 500 Kbps\nWidth                            : 720 pixels\nHeight                           : 576 pixels\nDisplay aspect ratio             : 4/3\nFrame rate                       : 25.000 fps\nStandard                         : PAL\nColorimetry                      : 4:2:0\nScan type                        : Interlaced\nScan order                       : Top Field First\nBits/(Pixel*Frame)               : 0.562\nStream size                      : 780 MiB (92%)\n\nAudio\nID                               : 192 (0xC0)\nFormat                           : MPEG Audio\nFormat version                   : Version 1\nFormat profile                   : Layer 2\nDuration                         : 18mn 43s\nBit rate mode                    : Constant\nBit rate                         : 224 Kbps\nChannel(s)                       : 2 channels\nSampling rate                    : 48.0 KHz\nResolution                       : 16 bits\nStream size                      : 30.0 MiB (4%)\n\n\n\n\n\n\n\n\n\nEnjoy, and seed please!","torrent":{"xt":"urn:btih:44d478cba34b0682885b83c53dea8627f15c8d40","amp;dn":"Lesbians+play+with+cucumber+in+kitchen","amp;tr":["udp%3A%2F%2Ftracker.openbittorrent.com%3A80","udp%3A%2F%2Fopen.demonii.com%3A1337","udp%3A%2F%2Ftracker.coppersurfer.tk%3A6969","udp%3A%2F%2Fexodus.desync.com%3A6969"],"infoHash":"44d478cba34b0682885b83c53dea8627f15c8d40","infoHashBuffer":{"type":"Buffer","data":[68,212,120,203,163,75,6,130,136,91,131,197,61,234,134,39,241,92,141,64]},"announce":[],"urlList":[]}}